HIERARCHY
ROOT Hips
{
	OFFSET 0.000000 0.000000 0.000000 
	CHANNELS 6 Xposition Yposition Zposition Yrotation Xrotation Zrotation
	JOINT Spine
	{
		OFFSET 0.000000 0.072080 0.012321 
		CHANNELS 3 Xrotation Yrotation Zrotation
		JOINT Spine1
		{
			OFFSET 0.000000 0.126984 -0.001294 
			CHANNELS 3 Xrotation Yrotation Zrotation
			JOINT Spine2
			{
				OFFSET 0.000000 0.106559 -0.010096 
				CHANNELS 3 Xrotation Yrotation Zrotation
				JOINT Neck
				{
					OFFSET 0.000000 0.108417 -0.034017 
					CHANNELS 3 Xrotation Yrotation Zrotation
					JOINT Neck1
					{
						OFFSET 0.000000 0.033906 0.007241 
						CHANNELS 3 Xrotation Yrotation Zrotation
						JOINT Head
						{
							OFFSET 0.000000 0.031458 0.006707 
							CHANNELS 3 Xrotation Yrotation Zrotation
							End Site
							{
								OFFSET 0.000000 0.179920 0.000962 
							}
						}
					}
				}
				JOINT LeftShoulder
				{
					OFFSET 0.048002 0.079586 -0.029634 
					CHANNELS 3 Zrotation Xrotation Yrotation
					JOINT LeftArm
					{
						OFFSET 0.096243 -0.008695 -0.014012 
						CHANNELS 3 Zrotation Xrotation Yrotation
						JOINT LeftForeArm
						{
							OFFSET 0.216305 0.000000 0.000000 
							CHANNELS 3 Xrotation Zrotation Yrotation
							JOINT LeftHand
							{
								OFFSET 0.217764 0.000000 0.000000 
								CHANNELS 3 Zrotation Yrotation Xrotation
								JOINT LeftHandThumb1
								{
									OFFSET 0.018582 -0.007835 0.020476 
									CHANNELS 3 Zrotation Xrotation Yrotation
									JOINT LeftHandThumb2
									{
										OFFSET 0.026269 -0.007835 0.022186 
										CHANNELS 3 Zrotation Xrotation Yrotation
										JOINT LeftHandThumb3
										{
											OFFSET 0.035170 -0.010504 0.017018 
											CHANNELS 3 Zrotation Xrotation Yrotation
											End Site
											{
												OFFSET 0.020312 -0.007813 0.007813 
											}
										}
									}
								}
								JOINT LeftHandMiddle1
								{
									OFFSET 0.081749 0.004803 0.003358 
									CHANNELS 3 Zrotation Xrotation Yrotation
									JOINT LeftHandMiddle2
									{
										OFFSET 0.045251 0.000000 0.000000 
										CHANNELS 3 Zrotation Xrotation Yrotation
										JOINT LeftHandMiddle3
										{
											OFFSET 0.029009 0.000000 0.000000 
											CHANNELS 3 Zrotation Xrotation Yrotation
											End Site
											{
												OFFSET 0.017969 0.000000 0.000000 
											}
										}
									}
								}
								JOINT LeftHandIndex1
								{
									OFFSET 0.081207 0.004803 0.021137 
									CHANNELS 3 Zrotation Xrotation Yrotation
									JOINT LeftHandIndex2
									{
										OFFSET 0.043354 0.000000 0.000000 
										CHANNELS 3 Zrotation Xrotation Yrotation
										JOINT LeftHandIndex3
										{
											OFFSET 0.026493 0.000000 0.000000 
											CHANNELS 3 Zrotation Xrotation Yrotation
											End Site
											{
												OFFSET 0.019531 0.000000 0.000000 
											}
										}
									}
								}
								JOINT LeftHandRing1
								{
									OFFSET 0.080666 0.002509 -0.014652 
									CHANNELS 3 Zrotation Xrotation Yrotation
									JOINT LeftHandRing2
									{
										OFFSET 0.042541 0.000000 0.000000 
										CHANNELS 3 Zrotation Xrotation Yrotation
										JOINT LeftHandRing3
										{
											OFFSET 0.029009 0.000000 0.000000 
											CHANNELS 3 Zrotation Xrotation Yrotation
											End Site
											{
												OFFSET 0.015625 0.000000 0.000000 
											}
										}
									}
								}
								JOINT LeftHandPinky1
								{
									OFFSET 0.078227 -0.000612 -0.030993 
									CHANNELS 3 Zrotation Xrotation Yrotation
									JOINT LeftHandPinky2
									{
										OFFSET 0.028721 0.000000 0.000000 
										CHANNELS 3 Zrotation Xrotation Yrotation
										JOINT LeftHandPinky3
										{
											OFFSET 0.021963 0.000000 0.000000 
											CHANNELS 3 Zrotation Xrotation Yrotation
											End Site
											{
												OFFSET 0.022656 0.000000 0.000000 
											}
										}
									}
								}
							}
						}
					}
				}
				JOINT RightShoulder
				{
					OFFSET -0.047970 0.079586 -0.029634 
					CHANNELS 3 Zrotation Xrotation Yrotation
					JOINT RightArm
					{
						OFFSET -0.096274 -0.008695 -0.014012 
						CHANNELS 3 Zrotation Xrotation Yrotation
						JOINT RightForeArm
						{
							OFFSET -0.216305 0.000000 0.000000 
							CHANNELS 3 Xrotation Zrotation Yrotation
							JOINT RightHand
							{
								OFFSET -0.217764 0.000000 0.000000 
								CHANNELS 3 Zrotation Yrotation Xrotation
								JOINT RightHandThumb1
								{
									OFFSET -0.019670 -0.007318 0.019638 
									CHANNELS 3 Zrotation Xrotation Yrotation
									JOINT RightHandThumb2
									{
										OFFSET -0.025498 -0.008492 0.023179 
										CHANNELS 3 Zrotation Xrotation Yrotation
										JOINT RightHandThumb3
										{
											OFFSET -0.034504 -0.010705 0.016680 
											CHANNELS 3 Zrotation Xrotation Yrotation
											End Site
											{
												OFFSET -0.020312 -0.007813 0.007813 
											}
										}
									}
								}
								JOINT RightHandIndex1
								{
									OFFSET -0.081770 0.003825 0.021187 
									CHANNELS 3 Zrotation Xrotation Yrotation
									JOINT RightHandIndex2
									{
										OFFSET -0.042006 0.000000 0.000000 
										CHANNELS 3 Zrotation Xrotation Yrotation
										JOINT RightHandIndex3
										{
											OFFSET -0.026449 0.000000 0.000000 
											CHANNELS 3 Zrotation Xrotation Yrotation
											End Site
											{
												OFFSET -0.020312 0.000000 0.000000 
											}
										}
									}
								}
								JOINT RightHandMiddle1
								{
									OFFSET -0.084059 0.003825 0.003342 
									CHANNELS 3 Zrotation Xrotation Yrotation
									JOINT RightHandMiddle2
									{
										OFFSET -0.043881 0.000000 0.000000 
										CHANNELS 3 Zrotation Xrotation Yrotation
										JOINT RightHandMiddle3
										{
											OFFSET -0.029191 0.000000 0.000000 
											CHANNELS 3 Zrotation Xrotation Yrotation
											End Site
											{
												OFFSET -0.017969 0.000000 0.000000 
											}
										}
									}
								}
								JOINT RightHandRing1
								{
									OFFSET -0.081798 0.003030 -0.015127 
									CHANNELS 3 Zrotation Xrotation Yrotation
									JOINT RightHandRing2
									{
										OFFSET -0.042198 0.000000 0.000000 
										CHANNELS 3 Zrotation Xrotation Yrotation
										JOINT RightHandRing3
										{
											OFFSET -0.026497 0.000000 0.000000 
											CHANNELS 3 Zrotation Xrotation Yrotation
											End Site
											{
												OFFSET -0.017188 0.000000 0.000000 
											}
										}
									}
								}
								JOINT RightHandPinky1
								{
									OFFSET -0.077902 -0.000930 -0.030891 
									CHANNELS 3 Zrotation Xrotation Yrotation
									JOINT RightHandPinky2
									{
										OFFSET -0.028538 0.000000 0.000000 
										CHANNELS 3 Zrotation Xrotation Yrotation
										JOINT RightHandPinky3
										{
											OFFSET -0.021734 0.000000 0.000000 
											CHANNELS 3 Zrotation Xrotation Yrotation
											End Site
											{
												OFFSET -0.022656 0.000000 0.000000 
											}
										}
									}
								}
							}
						}
					}
				}
			}
		}
	}
	JOINT LeftUpLeg
	{
		OFFSET 0.075264 -0.025573 0.000000 
		CHANNELS 3 Xrotation Yrotation Zrotation
		JOINT LeftLeg
		{
			OFFSET 0.000000 -0.326016 -0.013516 
			CHANNELS 3 Xrotation Yrotation Zrotation
			JOINT LeftFoot
			{
				OFFSET 0.000098 -0.306172 -0.006623 
				CHANNELS 3 Xrotation Yrotation Zrotation
				JOINT LeftToeBase
				{
					OFFSET -0.001432 -0.095259 0.064705 
					CHANNELS 3 Xrotation Yrotation Zrotation
					End Site
					{
						OFFSET 0.000000 0.000000 0.079438 
					}
				}
			}
		}
	}
	JOINT RightUpLeg
	{
		OFFSET -0.075264 -0.025573 0.000000 
		CHANNELS 3 Xrotation Yrotation Zrotation
		JOINT RightLeg
		{
			OFFSET 0.000000 -0.326016 -0.013516 
			CHANNELS 3 Xrotation Yrotation Zrotation
			JOINT RightFoot
			{
				OFFSET 0.000098 -0.306172 -0.006623 
				CHANNELS 3 Xrotation Yrotation Zrotation
				JOINT RightToeBase
				{
					OFFSET -0.001432 -0.095259 0.064705 
					CHANNELS 3 Xrotation Yrotation Zrotation
					End Site
					{
						OFFSET 0.000025 0.000000 0.079438 
					}
				}
			}
		}
	}
}
MOTION
Frames: 5
Frame Time: 0.033333
0.060706 0.735644 0.040910 -44.702801 -0.892600 -4.895700 1.645200 -4.303500 2.355600 1.233400 -3.764300 4.605600 1.131700 -3.309300 4.548900 0.933600 -5.814400 0.912900 -0.000000 0.000000 -0.000000 -3.227400 -14.292000 0.198400 -3.850500 4.686900 -14.048200 -81.973000 -5.660400 6.639200 0.000000 0.000000 -14.761200 -8.612000 -4.622400 -21.794701 6.370900 23.617201 5.195800 -6.615000 -9.831900 17.615700 2.638200 -2.251500 5.211900 -13.108400 -0.725700 4.735500 -33.670799 -0.459900 0.596300 -12.419500 -0.015400 0.239500 -4.878600 0.010900 1.515000 -20.644400 -0.253900 0.709200 -10.108100 -0.017700 -0.227900 -24.147499 -1.388200 6.683900 -40.352798 0.185200 0.277300 -19.406900 0.238100 -0.036400 -33.848999 -2.671600 10.409400 -45.666302 -0.183200 -0.365200 -20.576401 -0.171000 0.776700 4.745900 4.637300 3.076800 72.019798 -4.678300 -1.929700 0.000000 -0.000000 9.492200 18.639700 -9.283400 -2.104600 -5.464400 24.868299 -10.176000 7.568000 -8.958900 -14.331000 -2.127400 -2.122900 -3.601800 2.132700 0.291400 -1.870800 20.836201 -0.335000 -1.135500 13.936800 -0.104600 0.949500 11.611700 -0.655900 -5.657300 33.489498 -0.657400 -1.261100 15.903300 -0.075200 -0.400400 22.962200 -1.437100 -7.469300 40.242001 -0.099600 -1.053300 17.637300 0.082600 1.509800 32.913502 -2.926900 -11.950800 45.982601 -0.550400 -0.496800 22.269899 -0.428200 1.797100 -13.730500 33.112801 12.173200 26.984699 10.141500 8.270600 -11.171000 29.996099 -12.609700 -0.396400 0.000000 -0.000000 -7.639500 -24.733200 1.448100 23.271999 4.239200 4.553400 -15.311300 -16.865499 -7.793000 -0.473600 0.000000 0.000000 
0.055794 0.736330 0.042284 -47.273998 -0.892500 -4.896100 1.667900 -3.589100 2.339400 1.223800 -2.582600 5.012000 1.060800 -2.115900 4.941800 1.245100 -6.118600 0.346100 -0.000000 0.000000 -0.000000 -2.521300 -16.415001 0.733600 -3.912800 4.689800 -14.295800 -81.394997 -5.658100 6.003500 -0.000000 0.000000 -15.458300 -6.895300 -5.827700 -21.956900 6.389300 23.587601 4.951500 -6.633800 -9.946400 17.696899 2.646800 -2.254900 5.191600 -13.257500 -0.733600 4.733100 -33.659599 -0.459800 0.596400 -12.408200 -0.015400 0.239500 -5.023700 -0.003100 1.483700 -20.638399 -0.253800 0.709300 -10.102000 -0.017700 -0.227900 -24.271799 -1.392900 6.654000 -40.316898 0.185000 0.277300 -19.370199 0.237700 -0.036400 -33.986000 -2.671500 10.324400 -45.625801 -0.183100 -0.364900 -20.535900 -0.170700 0.776900 4.223300 4.550500 2.542800 73.336502 -3.193800 -2.297300 0.000000 -0.000000 8.615900 20.492599 -10.587800 -1.617600 -5.025700 24.926300 -11.385000 7.606200 -8.817500 -13.729800 -2.290500 -2.095400 -3.450300 0.447400 0.369600 -1.804600 20.887699 -0.336000 -1.136200 13.988400 -0.104900 0.948600 10.506400 -0.591500 -5.774100 33.430500 -0.655900 -1.260700 15.846800 -0.074800 -0.399500 22.008600 -1.387600 -7.627600 40.214600 -0.099300 -1.052800 17.612801 0.082500 1.510300 32.027000 -2.869300 -11.923600 46.073898 -0.551900 -0.497700 22.361099 -0.429500 1.795800 -13.031300 34.973801 13.535800 26.381300 10.128100 6.363500 -11.474400 29.964399 -12.215100 -0.989200 0.000000 0.000000 -6.720700 -27.027100 2.519600 22.392799 2.847300 2.839200 -14.864500 -16.122499 -6.491100 -1.107500 -0.000000 -0.000000 
0.051100 0.736967 0.043687 -49.845001 -0.892500 -4.898900 1.693600 -2.780800 2.303400 1.204000 -1.354100 5.450900 0.984300 -0.874100 5.366900 1.638000 -6.509500 -0.190400 -0.000000 0.000000 -0.000000 -1.768000 -18.233900 1.057300 -3.938400 4.691600 -14.412000 -80.917801 -5.564500 5.528600 -0.000000 -0.000000 -16.185699 -5.670900 -6.704700 -22.104099 6.436300 23.518299 4.532200 -6.690000 -10.110700 17.890100 2.657900 -2.259300 5.165400 -13.567700 -0.750100 4.750600 -33.673901 -0.459900 0.596200 -12.423200 -0.015400 0.239500 -5.353400 -0.023000 1.471200 -20.664600 -0.254100 0.709100 -10.128300 -0.017700 -0.227900 -24.575899 -1.405500 6.603800 -40.293400 0.184900 0.277300 -19.345400 0.237500 -0.036400 -34.293098 -2.677000 10.210300 -45.595501 -0.183000 -0.364800 -20.505600 -0.170500 0.777100 3.804800 4.500500 1.776400 74.337097 -1.382100 -2.727200 0.000000 0.000000 8.342300 21.875000 -11.344800 -1.439300 -4.677200 25.179399 -12.094600 7.538300 -8.705600 -13.252000 -2.305800 -2.084400 -3.355100 -0.535500 0.412900 -1.761500 20.904400 -0.336300 -1.136400 14.005000 -0.105000 0.948300 9.872200 -0.554500 -5.831400 33.379799 -0.654700 -1.260400 15.797300 -0.074500 -0.398600 21.432501 -1.358100 -7.731400 40.188099 -0.099100 -1.052400 17.588200 0.082400 1.510800 31.482700 -2.830300 -11.882900 46.099800 -0.552400 -0.497900 22.387100 -0.429900 1.795400 -12.144800 36.773800 15.445800 25.987400 10.055500 2.951000 -12.248000 30.010401 -11.046400 -2.113700 -0.000000 0.000000 -5.394300 -28.802900 3.026800 20.725599 1.831600 2.508900 -14.097000 -14.677400 -5.623900 -1.066800 0.000000 -0.000000 
0.046612 0.737535 0.044755 -52.415798 -0.892400 -4.902800 1.702300 -1.913000 2.235200 1.163600 -0.147800 5.838000 0.897400 0.345000 5.740800 2.085500 -6.961100 -0.648600 -0.000000 0.000000 -0.000000 -0.948200 -19.711300 1.152800 -4.136900 4.707600 -14.162300 -80.452499 -5.361300 5.111200 0.000000 0.000000 -16.856400 -5.158100 -7.185100 -22.271099 6.457100 23.483900 4.213600 -6.731300 -10.229500 18.053699 2.667300 -2.263000 5.143300 -13.813200 -0.763400 4.782900 -33.693699 -0.460200 0.596000 -12.443900 -0.015400 0.239400 -5.615900 -0.035200 1.478800 -20.708599 -0.254700 0.708900 -10.172300 -0.017700 -0.228000 -24.841999 -1.417200 6.573200 -40.294899 0.184900 0.277300 -19.346100 0.237500 -0.036400 -34.565498 -2.686200 10.166100 -45.599098 -0.183000 -0.364800 -20.509199 -0.170500 0.777100 3.564100 4.484500 1.111900 74.749802 0.466800 -2.859000 0.000000 0.000000 8.140500 22.556700 -11.784900 -1.561500 -4.392100 25.629200 -12.312700 7.422300 -8.649900 -13.012800 -2.083600 -2.097000 -3.323700 -0.558800 0.417500 -1.767900 20.889700 -0.336000 -1.136200 13.990400 -0.104900 0.948500 9.883500 -0.555200 -5.830900 33.351700 -0.654100 -1.260200 15.769300 -0.074300 -0.398200 21.398001 -1.356100 -7.733400 40.168900 -0.098900 -1.052100 17.569000 0.082300 1.511100 31.422701 -2.824900 -11.870500 46.068699 -0.551800 -0.497600 22.356001 -0.429500 1.795900 -11.250000 38.094700 17.202900 25.639799 9.987600 -0.655500 -12.748100 30.010300 -9.773700 -3.735500 0.000000 -0.000000 -3.810100 -29.864799 3.176400 18.585699 1.145200 3.310100 -13.207200 -13.073900 -5.287800 -0.673200 0.000000 0.000000 
0.042277 0.737972 0.045182 -54.986099 -0.892300 -4.911300 1.683700 -1.057400 2.159800 1.100100 0.956900 6.122700 0.802200 1.460500 6.013600 2.537800 -7.401300 -1.029100 -0.000000 0.000000 -0.000000 -0.100000 -20.765600 0.967900 -4.623700 4.743700 -13.534500 -80.027397 -5.066800 4.667400 -0.000000 -0.000000 -17.300699 -5.463200 -7.145900 -22.506800 6.380500 23.580500 4.261100 -6.690600 -10.224400 18.027800 2.672800 -2.265200 5.130300 -13.771300 -0.761600 4.812000 -33.681999 -0.460000 0.596200 -12.433000 -0.015400 0.239400 -5.551500 -0.028700 1.494300 -20.739100 -0.255000 0.708700 -10.202800 -0.017700 -0.228000 -24.832300 -1.418100 6.599800 -40.313099 0.185000 0.277300 -19.365200 0.237700 -0.036400 -34.584301 -2.694500 10.261300 -45.641300 -0.183100 -0.365000 -20.551399 -0.170800 0.776800 3.492200 4.479000 0.928100 74.437202 1.885400 -2.526800 0.000000 0.000000 7.720900 22.395800 -12.130100 -2.024400 -4.203800 26.066900 -12.211300 7.351100 -8.660700 -13.058500 -1.724300 -2.125200 -3.344100 0.119600 0.397100 -1.816300 20.859501 -0.335400 -1.135800 13.960100 -0.104700 0.949100 10.359300 -0.582900 -5.792400 33.350700 -0.654000 -1.260200 15.767400 -0.074300 -0.398100 21.772900 -1.374500 -7.649200 40.159100 -0.098800 -1.051900 17.557899 0.082300 1.511400 31.727600 -2.846400 -11.890700 46.014099 -0.550900 -0.497100 22.301399 -0.428700 1.796600 -12.066400 38.086399 19.041300 27.254999 9.900400 -2.947300 -11.674200 29.527300 -9.931400 -5.651600 0.000000 -0.000000 -2.313200 -29.914499 3.268100 16.431000 1.221500 4.582700 -12.421900 -12.261900 -5.558900 -0.435900 0.000000 -0.000000 
